/* XPM */
static char *_a1e7c6ae1fb459eced7f75f63ea5f72SZ2ZZNp4SRm81VMz[] = {
/* columns rows colors chars-per-pixel */
"64 64 217 2 ",
"   c #2A1D09",
".  c #2E1F18",
"X  c #351E18",
"o  c #2D2208",
"O  c #3E2914",
"+  c #3E251D",
"@  c #392B19",
"#  c #3D291E",
"$  c #3F1F22",
"%  c #3C1D25",
"&  c #1E222E",
"*  c #2F2420",
"=  c #292125",
"-  c #2C2927",
";  c #22232B",
":  c #26212A",
">  c #272629",
",  c #312225",
"<  c #3D2224",
"1  c #392625",
"2  c #372B22",
"3  c #3A2821",
"4  c #302729",
"5  c #362729",
"6  c #3F2A2E",
"7  c #3E332B",
"8  c #3A2F37",
"9  c #41300E",
"0  c #462F15",
"q  c #4A2E16",
"w  c #43251E",
"e  c #47281C",
"r  c #472C1E",
"t  c #4D2C1B",
"y  c #4A2A1E",
"u  c #4F2E1D",
"i  c #522F19",
"p  c #493111",
"a  c #4E3013",
"s  c #43321B",
"d  c #4F3219",
"f  c #48311C",
"g  c #4C301D",
"h  c #523316",
"j  c #573317",
"k  c #563714",
"l  c #573C17",
"z  c #593916",
"x  c #5F3D14",
"c  c #543518",
"v  c #553719",
"b  c #55321C",
"n  c #52341C",
"m  c #533A1A",
"M  c #57381B",
"N  c #503B1F",
"B  c #5B3B18",
"V  c #5E3E1A",
"C  c #5A3A1D",
"Z  c #5C3D1F",
"A  c #422020",
"S  c #402320",
"D  c #422522",
"F  c #462720",
"G  c #442B26",
"H  c #492B23",
"J  c #4D2D21",
"K  c #422C2D",
"L  c #403224",
"P  c #483821",
"I  c #533120",
"U  c #503124",
"Y  c #573920",
"T  c #5B3C23",
"R  c #583A27",
"E  c #413335",
"W  c #4B3537",
"Q  c #5D4116",
"!  c #5B401A",
"~  c #654313",
"^  c #624017",
"/  c #654715",
"(  c #6A4616",
")  c #6A4B12",
"_  c #6C4811",
"`  c #654319",
"'  c #63461B",
"]  c #64421F",
"[  c #69461D",
"{  c #694B19",
"}  c #6C4818",
"|  c #6F4B1B",
" . c #754F19",
".. c #734E1E",
"X. c #715119",
"o. c #70511F",
"O. c #76561D",
"+. c #795618",
"@. c #7D5A1B",
"#. c #4F412F",
"$. c #504229",
"%. c #5F4D2C",
"&. c #574A30",
"*. c #554D32",
"=. c #5F5037",
"-. c #624620",
";. c #614225",
":. c #6D4A20",
">. c #6E5527",
",. c #6E562D",
"<. c #755523",
"1. c #7B5A22",
"2. c #694E30",
"3. c #6B5834",
"4. c #62543A",
"5. c #685939",
"6. c #6E5F3F",
"7. c #775F36",
"8. c #745E3F",
"9. c #7D6233",
"0. c #73603B",
"q. c #574542",
"w. c #5A524F",
"e. c #685940",
"r. c #6D5E44",
"t. c #766545",
"y. c #7E6640",
"u. c #73654A",
"i. c #7D6D4C",
"p. c #7E6D54",
"a. c #746858",
"s. c #805E1F",
"d. c #856223",
"f. c #816027",
"g. c #8A6727",
"h. c #8F6B25",
"j. c #9B752F",
"k. c #846938",
"l. c #8B6F3E",
"z. c #826940",
"x. c #856D49",
"c. c #8B7047",
"v. c #84714B",
"b. c #8D784C",
"n. c #927540",
"m. c #987A45",
"M. c #957949",
"N. c #92784D",
"B. c #9A7E4E",
"V. c #837251",
"C. c #8B7A59",
"Z. c #977D52",
"A. c #927854",
"S. c #907C56",
"D. c #8E7E6B",
"F. c #9E8251",
"G. c #92805F",
"H. c #9A8458",
"J. c #9A855E",
"K. c #A28554",
"L. c #A08459",
"P. c #A38B59",
"I. c #A68958",
"U. c #A08B5E",
"Y. c #A68A5F",
"T. c #AC8E5D",
"R. c #A8915E",
"E. c #928266",
"W. c #9C856A",
"Q. c #9E8968",
"!. c #9A8C6F",
"~. c #9A8C78",
"^. c #A58B65",
"/. c #A08C64",
"(. c #A69063",
"). c #AC9064",
"_. c #AF9865",
"`. c #A69069",
"'. c #AC976F",
"]. c #AE986B",
"[. c #B29362",
"{. c #B3966B",
"}. c #A49270",
"|. c #AB9876",
" X c #A4987C",
".X c #B99C70",
"XX c #BC9E72",
"oX c #B29F7D",
"OX c #B7A072",
"+X c #B4A077",
"@X c #BFA276",
"#X c #BCA577",
"$X c #BDA17B",
"%X c #BAA57D",
"&X c #C2AB7D",
"*X c #C6A87C",
"=X c #AE9E83",
"-X c #BAA683",
";X c #B6A588",
":X c #BAAB8D",
">X c #C1AB82",
",X c #C6AA83",
"<X c #CBAD80",
"1X c #C0AD89",
"2X c #C5B484",
"3X c #C8B182",
"4X c #CEB687",
"5X c #C6B28F",
"6X c #C8B289",
"7X c #CDB189",
"8X c #CDB88E",
"9X c #D3B68F",
"0X c #CBB895",
"qX c #D1BB92",
"wX c #D3BD94",
"eX c #D2BE9A",
"rX c #D6C096",
/* pixels */
"XX7X{.k.7.M.Y.{.OX{.n.9.XX@X].<XqX6XwXrX8X<XrXK.I.>X>XrXrXqX8X4X2X4X8XwX9X3XXXwXwXwXwX8X&X&X9XwXwXwXwXwX3X@X7XwXqX3XwXC.|.qX2XwX",
"@XqX@X3.%.Z.I.I.{.OXXXXX*X8XqXV.t.t.C.+X%X$XOX<XOX3X&XXX.XXX3X#X#X<X&X@X&XT.T.4XqXqXwX&X#XXX.XXX3XqXqXqXXX{..X*XwX8X9X&.Q.wXwXwX",
"XXqXT.=.  Q.8X).B.K.I.T.9XqX6X+X/.(.S.U.Y.F.I.T.[.I.{.[..XXX&XXXK._.[.<X#XK.B.K.#X_.P._.3X@X[.{.@XB.R.P.R._.OXK.T.K.0.$.r.6X&XrX",
",XI.m.#.@ y.3.c.I.K.I.I.T.@X&XXX3X#X.XOXOX{.{.@X7X8X>XG.6X8XC.x.b.Z.).{.@X{.I.[.qX&XF.[.*X[.3X3XrX{.&X<X9X@X3X3X3XT.N.$.u.#XXXwX",
"<XB.n.r.@ Q.r.C./.J.J.U.%X+X'./.S.S.).#X8X<X#XV.t.r.r.u.G.u.r.t.i.A.].).XXJ.`.`.+X6X.X#X+X^.wXwXwX]..XXX&X'.`.+X%XXXb.$.p.F.[.wX",
"[.F.[.8.o 4.&.$.$.&.0.t.i.5.5.s P &.$.5.6.&.&.N N 6.i.6.9 9 &.4.C.e.=.C.}.t.e.=.4.t.5.i.6.&.&.*.r.V.r.u.r.i.i.4.=.r.t.*.r.F.T.wX",
"'.B.#X4.7 n c $ g O f + g q ;.2.R m m r ;.-.V y V z y r z h a > > V ^ x + Q Q Q S z.z.^ 8.-.l p N # 0 0 0 X S N ;.+ Q P p.m.K.5X",
"#XB.{.5.c z n S g t i y t d n t u c c t c h c d c h t u z c j - - V c z t B V S y V z V y V ] z z t z z ] y y h n $ c d 0Xn.K.:X",
"OXF..Xy.B d d S t i n t u n n u u n c t h V h u h c t c ^ c c ; 2 z h V t B B S F [ x ^ y c M j c d c h V y t n n $ M M 7Xn.T. X",
"H.m.].7.2.d b $ i h u d c h V y t x z F c o.c t h h | F ~ c c & & c c X.D ~ ^ F e ] B j t ] c c c u c c V u z c S $ M M ,Xm.<X!.",
"H.n.{.z.h n j $ M h g t V <.x n c ( x S z :.B y c c d.F ~ B z & & c c | t ~ V y y ] V c e ..x B c F z c c j y ] F $ z c `.[.7X1X",
"M.m.B.v.n d c $ C c y S ( s.^ n c ~ ~ w | c ~ $ c  .d.S  .[ c & & c c J ( ~ ^ w F ` h h F [ o.c c w ~ c 1.S $ B F V ! z Q.T.<X6X",
"Z.n.z.8.n t j $ C ^ F $ |  .{ C y ( n < <.c ( < c h.( S [ c c & & c c J ( _ ( ' $ 1.( c % <._ d.F w ( ( g.$ % ^ F { Q l Q.{.OX3X",
"L.m.z.A.n n j $ c [ y D  .^ { I t ( $ S O.~ ~ < [ h.( F x c c & c c c J ~ { (  .$ 1.( k % s.( g.F S ( ( ( $ % ( F B ' z >X[.XX*X",
"'.T.%.Q.= = = < ] ( y & & & & & & & & & & & & $ h.c ( F ~ c & & c ~ c H ~ ( ( ( D & & & & & & & & & & & & $ % ~ & & & w.%X6XrX&X",
"F.B.3.#., = = = ; & & & & & & & & & & & & & & & & c O.F x c & & c ( k F 1.( c & & & & & & & & & & & & & & & & & & & & w.>X<XrX@X",
"{.K.J.#.: : : = ~ ..' ; ; & & & & & & & & & & U ^ c O.F z c & & c ( ( w J ( ( c D & & & & & & & & & & & & % h.~ & & & & 5X@XqX#X",
"oX[.v.L t c = $ ~ X.o.y z  .c u i O.~ S ~ c < F ^ ( O.S z c & & ( ( ( ~ y ( ( ( S ( ( c $ c c ^ _ U _ ( c % h.( ( y ^ c -X@X8X&X",
"-XK.N.3 t j i $ ~ ..<.H  . .x y i X. .S ~ c < D ^ ( O.S c c & & _ ( c ~ F f.z ( D ( ( c % c c _ ( U _ ( ^ % ~ h.c y Q c oX{.rX7X",
"1XK.M.3 t c i $ ~ X.@.H O.x ~ t ( | X.$ ~  .~ D ^ O.~ y c c ~ & c _ c ~ H h.B ( D X.( c % c ^ _ c U _ ( $ $ ~ j.c y ! c =X{.rX8X",
"1XK.7.3 t c t $ ~ X.< U ^ ~ ~ y ( O.~ < ~ X.~ S ^ O.( y ( ( ~ & c _ ~ ~ H o.( c D X.^ ^ % ^ ( _ ~ U _ _ $ y ( j.( F ! c -XXXwX8X",
"1X[.y.3 t n t $ ^ d.^ < z ~ ~ F ( O.~ $  .( ~ S ` O.( y ( ( c & c _ ( ( D O.( ( S ( ^ ^ % ^ _ c ~ U _ c $ $ ( j.( F ! c '.[.qX8X",
">XXXx.3 t n t $ ^ d.^ < z ~ ( F ( O.( $ X.( ~ $  . .( w ( ( c & c _ ~ n D X.( ( S ( ^ ~ % ( _ c ( U _ ^ % % ( j.( F ! c C.T.rXwX",
"+X*Xi.2 t b b $ ^ d.1.< c ~ ( F ( O.% S X.( ~ $  .` ( y c c c & c _ ( $ h.^ O.( < g.` ~ % _ _ ( ( U ( ^ X.% c j.x F Q 2.|.I.qX8X",
"+X*XL.* t n b $ ^ | h.< c ~ c F ( @.% $ X.( ~ $  .V F y ~ c c & c _ ( $ g.( X.( $ d.| ( % _ c ( y U ( ^ +.% ~ j.x F Q C '.T.9X9X",
"].[.{.. t n t S ^ z g.$ z z ~ F ( @.S D ( ( ~ $ _ _ w y ( c c & _ ( ( % g.( ( ( $ d.X.( % _ ( _ J H _ ( O.% j.( ( e ' c /.K.8X9X",
"U.]./.* t c n S ^ h d.< z z ~ F ( @.~ y ( ( ( $ _  .S D ( c c & & c _ % g.( ~ ~ S d.X.( % _ ( _ J D F (  .% j.( ~ y ' c /.K.@XqX",
"].@X}.* c c j S { c g.$ c c ~ F _ @.c y ( ( ( $ _  .F y ( c c & & c _ % d.d.( ~ S g. .( % c ( _ y F y ^ O.% j.( / b ' c `.F..X9X",
"+X.XoXK c d j $ | c g.$ c c ~ D  .@.c F ~ ( | $ ( _ H ( ( z c & & c _ % g.s.( ( F g.X.( % s._ _ ( y c ^  .% j.~ ( F { c G.B.{.rX",
"].Y.1XW d d c S [ c g.$ <.c ~ D  .@.c F c ( | $ ( ( y ( ( c c & & c _ % g.( 1.c F g.X.~ % @._ _ ( S ^ ( O.$ j./ ( F { h G.B.).rX",
"+XI.6XE n n c S c o.g.S 1.c ( y O.( <.F x ( | $ ( ~ J ( ~ c c & & c ( ( % ( ( y H ( X.( % _ @.c ( S ( @.c % j./ y ~ { h p.M.L.7X",
">XB.-Xq.c i c S c ..1.S <.c ( y o.( O.F ^ ( | S ( c H ( ( c c & & c x ( % d.( w I ( _ ( % c O.c ( S ( @.c % j./ D F ' h a.l.U.>X",
"%XB.:Xw.c i c S ~ ..1.S 1.c _ F c O.O.F ^ ( | D ( <.; F ( ~ c & & c ^ ^ % & ( w g.( ~ ( % _ _ z ( D ( 1.c % j./ D S [ h e.m.{.7X",
"0XJ.D.5 n t c S / o.O.S z O._ F c  .s.y ^ ( ( D ~ ..& S ( ( c & & c ~ i % & c S g.( ( c % _ _ c ( y ( @.c % j.( D $ ^ 0 E.m.XXrX",
"1XY.;XH t t c S / O.O.$ c O.^ F c O.s.y ^ ( ( D ~ N & ; ( ~ ( & & c ~ y & & c S g.( ( c % _ c c _ y _ <.c % g.( S $ ^ h E.B.OXrX",
"0XY.1X6 t b b S B ' d.< x 1.^ F c O.s.y ^ ( ~ D - ; & & & ( ( & & ^ ^ % & & > H ( ( ~ _ % _ c c O.y @.c c % g.( F $ V h V.{.XXrX",
"0XN.}.6 t i i S z V 1.< ^ 1._ F c ..s.y ^ ( ~ D > ^ ( S > ( ( & & c ^ & y O.& ; ( ( ~ _ % c c c y w 1.c c % d.( F S ^ c U.H.OXrX",
"1Xb.}.K t i i S z ( 1.S ^ 1._ F x { I S ^ ( ~ D - c y F > c ( & & c ~ & w s.& ; g.( ~ _ % c ( c F y X.c ~ % d.( J $ V c L.Z..XrX",
":XH.|.G y i D w z ( 1.D ~ 1._ D ( | U S ^ ( ~ S g.> & & ( _ c & & c ~ & & & & F d.~ ~ _ % ( s.( J F X.c ~ / % ~ J D w c H.H.{.rX",
"oXS.|.G t n w F z ~ s.D x 1._ F ( ^ T F c ( ( S g.( ( y ( _ c & & c ~ ( R ( ( H ~ s.~ _ % ( d._ 1.F x | ^ S % ~ J ~ D c S.N.{.qX",
";XA.W.n t b F F ( ~ d.D x 1._ F ( ^ d.t ^ (  .D g.( ~ y ( _ c & & ~ c ( J ( (  .F ~ O._ $ % d._ s.F ~ ` k $ % ( D ( B c A.N.Y.rX",
"-X(.W.U t c M S ( ~ d.D ^ ^ _ F ( ~ 1.t ^ ( X.w g.( F y ( ( c & & ~ c ( H ( (  .F c ( O.% % d.~ d.F ..[ ( % % ( D ^ B c v.k.).qX",
"~.U.D.H t c n F ^ ~ d.D ^ ^ _ F ( ~ I u ^ ^ @.y f.( D ( ( c c & & c ~ ~ H ( (  .F c ( X.% % g._ d.F X.( _ % % ( D / c c G.z.K.qX",
";XY.p.5 t b g F X.~ 1.F x ^ _ S ( ~ I i c ~ s.y 1.(  .F ( c & & & c ~ ~ F ( ( ( H ( _ c % _ h.( s.F [  ._ % ' ( D / c c x.9.M.qX",
":X).W.5 y i y y ~ c @.D c ^ _ S ( ~ R i c ~ d.D 1.(  .F ( c & & & c ( ( F ( ( ( F ( _ c % _ g.( s.F c O._ % ^ O.y / B c N.,.B.8X",
"=XB.L.y y i y F ~ c @.D c ^ _ F ( c U c c ( d.F 1.(  .F ( c & & c c ( D F ( ( c S ( _ c % _ c s.%.F ( O._ % ~ @.& w B c F.,.M.qX",
"|.Z.y., , 1 y D ~ ^ - & ; & & & & & & ; & & d.w c d. .F ( c & & c c ( < S c ( c S & & ; & & & & & & & & & % s.& & & & & F.,.F.wX",
"5XI.y., , , , : & & & & > & & & & & & & & & & & & d.` F ( c & & c c ( $ $ z ( & & & & & & & & & & & & & & & & & & & & & M.,.B.wX",
"5XXXc., , , n : & & ; ; & & & & & & & & & & ; S c s. .F ( c & ; c c ~ < < ! ( w D & & & & & & & & & & & & & s.& & & & & F.>.B.wX",
"5X]./., , , c $ 1.^ ( & & & O.F ( ' F / ~ / d.S D @.F F ! c & ; c c ( < $ Q ( $ J ( c % % _ ~ s.( y Q k N % s.c & & c & M.9.Y.wX",
";XY.Y.t t b c S @.^ ( :.( c O.F ( ' y t / / O.F S 1.F F Q c & ; c ( ( < < Q z S J c c % $ _ ~ 1._ F ( k B $ % c g t c c M.z..XqX",
"5X].U.W g i n w @.c ( D ( c O.F / ' c u ' ( o.F F @.F F Q c & & z ( ( < O.! c S J ~ c % % _ c 1.V w ( k O.% % ~ F ` ~ c T.R.,XqX",
";X].>X5 g i i S @.c ~ D ( | _ F / z c u ( ( o.$ H ( ( y Q c & & B ( _ $ Y V c w 1.( c % % _ <./ V w ( c O.% o.( F / ( z ).L.XXwX",
"=X^.-XK y u y w ~ <.~ D ( | _ F ( V ^ t ( ~ d.$ H ~ ( F o.c & & c / _ $ I F ( S 1.( z _ % _ <.c B S ( ( ) % Q ( e / ~ z '.L.$XrX",
"eXU.1X6 e u e w ( @.~ D ( O._ F c ^ c I ( d.( $ @.~ ( w b c & & & B _ % Z F ( S 1.( ^ _ % _ @.c B S ( / / % / ( D Q ~ z /.L.'.8X",
"5X.X%X6 y g y F / s.( D ( O._ F ( [ t C ~ d.( < O.c t F Y c & & & B _ c y F ( S 1.c | _ % @._ ( / w _ / / % / ( F ' / ( /.c./.rX",
"qX].|.6 y n g y / @.( F _ ^ _ F ( [ I n d.( ( < X.c ( F C c & & & B Q c y D ( F 1.c o._ % @._ ( / F _ ( ~ % Q ~ y Q / z Z.A.^.rX",
"6XB.}.6 g g i w ( @.( :._ ~ c F ( c I b g.~ $ F _ c ( F Z c c & & c Q ( F D ( F ( ..o._ % :._ _ _ S _ ( ~ % / ~ S B / B b.v.`.8X",
"6Xl.oX6 u n b w ( ( s.y ( ~ c F ( c e <...( $ S [ c ( U y c c & & c Q ( < S ( ( S f._ _ % ^ _ _ _ $ ( s.c % / / S / / z v.0.J.6X",
">Xk.^.6 n n b w ( ~ @.H ( ~ ~ F ( ^ e h.[ ( $ D z ^ ( U ( M c & & c Q ( % $ _ ( $ d._ _ % B _ _ _ $ ( d.c % / / S / / c v.0.'.eX",
"6Xk./.4 t c c e ( ~ ( $ ( ( c F ( ~ Y y c ( c ( S ^ ( U ( ( ( & & z / ( % ( ( ( S ~ s._ % % _ _ _ < d.( ( % ~ / D F ! c }.x.|.|.",
"-Xc.].8 i i x t ( c ( $ ( ( c F ( ~ I b ~ ( ~ y $ ~ d.y ( ( ( & & c ( ( % ( ( ( w ~ @._ % % _ _ ( $ g.~ ( % ( / S D Q c oXv.J.|.",
"+X/.>XW h h ^ e ( c c w ( ( c F c c c y ~ ( ~ S S @.f.w c ( c & & c ( c % ( ~ c F ~ c | % % _ _ c $ g.~ ^ % ( c S D Q c oXE.5X:X",
"C.0X5X8 c c ~ t ( c c k ( ~ c F c c c ~ ~ c c S c c c d c c c c & c c c $ c c c ~ c c c % % _ _ h $ s.c ~ % c c S D ' c ~.!.5X X"
};
