/* XPM */
static char *_acf18e077884d1d983d52889d358a14RvTMpCCLqOAocjuT[] = {
/* columns rows colors chars-per-pixel */
"64 64 122 2 ",
"   c None",
".  c #35231A",
"X  c #3A261D",
"o  c #3E2D1F",
"O  c #1D222D",
"+  c #272527",
"@  c #2C2426",
"#  c #2E2927",
"$  c #23242B",
"%  c #2A2629",
"&  c #2B2929",
"*  c #332423",
"=  c #3B2621",
"-  c #352C25",
";  c #3C2B22",
":  c #362F28",
">  c #3D2A29",
",  c #3E3124",
"<  c #3E3628",
"1  c #252934",
"2  c #36373B",
"3  c #442D16",
"4  c #45261E",
"5  c #442B1D",
"6  c #4C2D1B",
"7  c #4F3417",
"8  c #46321D",
"9  c #4C331C",
"0  c #563617",
"q  c #583717",
"w  c #573917",
"e  c #5C3C16",
"r  c #53341A",
"t  c #583719",
"y  c #55391C",
"u  c #583B1C",
"i  c #5B3B1D",
"p  c #583A1E",
"a  c #593B1E",
"s  c #59381D",
"d  c #5C3C1C",
"f  c #5B3B1A",
"g  c #603F16",
"h  c #603F17",
"j  c #603F16",
"k  c #603F1E",
"l  c #603F1B",
"z  c #452620",
"x  c #422620",
"c  c #432D20",
"v  c #422F24",
"b  c #432B23",
"n  c #4A2B21",
"m  c #4A2F20",
"M  c #422B28",
"N  c #413020",
"B  c #403222",
"V  c #463123",
"C  c #423223",
"Z  c #4A3521",
"A  c #4D3B24",
"S  c #4D3A21",
"D  c #433528",
"F  c #45352C",
"G  c #45332A",
"H  c #48332D",
"J  c #513221",
"K  c #513822",
"L  c #523E20",
"P  c #583B24",
"I  c #5D3D21",
"U  c #433132",
"Y  c #533F35",
"T  c #5E4017",
"R  c #5B421D",
"E  c #5D401F",
"W  c #614015",
"Q  c #644216",
"!  c #684617",
"~  c #634118",
"^  c #61401A",
"/  c #62411A",
"(  c #644418",
")  c #654419",
"_  c #63421E",
"`  c #64431C",
"'  c #65441D",
"]  c #66451D",
"[  c #64431A",
"{  c #684719",
"}  c #68471C",
"|  c #68471B",
" . c #69481A",
".. c #69491B",
"X. c #6D4B1C",
"o. c #6D4B1D",
"O. c #6B4A1B",
"+. c #714F1D",
"@. c #73511C",
"#. c #75531E",
"$. c #74521D",
"%. c #7A581F",
"&. c #7D5A1F",
"*. c #554227",
"=. c #5C4021",
"-. c #5F4222",
";. c #574537",
":. c #554239",
">. c #5C4D39",
",. c #654624",
"<. c #624223",
"1. c #684725",
"2. c #7A5721",
"3. c #7E5B20",
"4. c #645335",
"5. c #705935",
"6. c #755D35",
"7. c #735C3B",
"8. c #775D39",
"9. c #755D3A",
"0. c #7E6746",
"q. c #75624B",
/* pixels */
"                                                                                                                                ",
"                                                                                                                                ",
"                                                                                                                                ",
"                                                                                                                                ",
"                                                                                                                                ",
"                                                                                                                                ",
"      >.                                                                                                                        ",
"      4.K                                                                                                             9         ",
"      5.p 6                                                                                                         m 0         ",
"      6.a 6 4 3                                                                                                   9 4 r         ",
"      8.p 6 4 6 3                                                                                             3 4 6 4 r         ",
"      8.r 6 6 6 6 r                                                                                         3 7 6 6 4 r         ",
"      7.r 6 6 r 6 r r                                                                                     7 9 r r r 6 q         ",
"      0.r 6 6 9 r r 9 r p                                                                               =.r r r 6 r f e         ",
"      q.V 6 6 r r ^ r r r r                                                                           ,.a r r f 6 9 t *.        ",
"      ;.* * 6 r a  .r 0 r r 6                                                                       9 f r 0 r ] n 9 @ 2         ",
"      F @ @ c r r { f 0 f r r 9                                                                   0 6 r f e r ] z ; O 1         ",
"      v ; @ * - % B 9 r f r f 9                                                                 9 r r r d ] 5 , $ # $ -         ",
"      = 6 = r L $ O % ; a r ` 9                                                                 9 f r r a A $ O D R 5 0         ",
"      = 6 4 r  .; % O O - y ] 9                                                                 8 e f 9 - $ O % P @.r 0         ",
"      = 6 6 r o.a u ; % O , e 9                                                                 5 h r % O $ , t r #.r 0         ",
"      ; 6 6 r } k ^ r p ; ; f 5                                                                 9 e B $ * y e e r %.r 0         ",
"      X 6 6 r _ r h f ^ r r e ;                                                                 0 e 9 9 6 e e f r &.r 0         ",
"      . 6 6 r o.r e e ^ e f e ;                                                                 e e f f r W e r r 3.r =.        ",
"      . 6 6 f @.r e e ^ ^ f e 9                                                                 W _ e e r h e f 6 2.r u         ",
"      . 6 6 r +.r e f a ^ f ^ y                                                                 h _ f f r W e Q r #.r w         ",
"      . 6 6 r ..r q f r l f e 9                                                                 W l e e f h f ! <.$.r q         ",
"      ; r 6 r ] r q e a e f r 9                                                                 e ` ^ ` t e r ] 1.X.r q         ",
"      M r 6 r } r q e l h f r 9                                                                 e ..l ] f e 6 ^ 1.X.t e         ",
"      H 9 6 r } r q e e e f r 9                                                                 q } e } t e 6 ^ 1.X.r q         ",
"      H 9 6 r o.I e l ^ e f e r                                                                 9 o.^ } d ) r ] 1. .f e         ",
"      Y r 6 r o.I e e ` e f e r                                                                 8 ..l ] d Q f { <.] r q         ",
"      :.r 6 r o.I ^ f ] e f r r                                                                 9 ^ f ^ f W f { <.' 4 0         ",
"      G 6 6 f o.r [ t ..e f Z r                                                                 8 r d W r e e  .<.` 4 0         ",
"      b 6 6 f o.r ] r ..e 9 - 9                                                                 8 = u ^ r e e ] I _ 4 0         ",
"      M 6 6 r ..r ] r } e 9 ; 8                                                                 8 * y W r e e l I ^ 4 0         ",
"      M 6 6 r ] r  .f d e 9 c 9                                                                 8 ; Z W r r a e I ^ 4 0         ",
"      M 6 6 r  .f  .f r q d y y                                                                 5 ; S ) r f r e d ^ 6 0         ",
"      b 6 4 r  .a  .f e e ] e r                                                                 8 9 u ] e { f W 9 r 6 6         ",
"      b 6 4 r O.r ] f ] W ] e 9                                                                 9 e e ^ r X.e h 4 r r r         ",
"      9 6 6 r O.r W f e e ] l o                                                                 9 e e e J o.k ^ 4 r f 0         ",
"      Z r 9 r  .r e f f e ] ^ ;                                                                 9 e e e r +._ ) 4 r r 0         ",
"      b 6 6 f  .r e r r y E ^ ;                                                                 0 r f f d @.d  .6 r r 0         ",
"      ; 6 6 t ^ 9 9 ; % $ , d o                                                                 0 r 9 8 9 ] a  .r e t 0         ",
"      = 6 6 r y @ $ O O % b r ;                                                                 0 6 ; O $ # - S r u 9 0         ",
"      x 4 4 5 - O O % ; d a r ;                                                                 0 9 5 @ O O O $ C < @ 5         ",
"      * * * $ $ O - y t ^ r f ;                                                                 e r 6 6 c C % $ % O O O         ",
"      * * = ; 9 B p d f ^ a t ;                                                                 w r r 6 r  .r 8 Z : O O         ",
"      * * 6 d ) d ^ f f ] d f 5                                                                 9 r f r r ] r q 9 B $ +         ",
"      * 4 6 d e f [ r f { e f 6                                                                 9 r e e f ^ r h b 9 5 o         ",
"      b 6 6 d ^ f ] r f ] r f 9                                                                 8 r d ^ d e r Q Z r r 0         ",
"      M 6 6 d { f { f a _ 6 e t                                                                 9 r e ] d W r ) r f f e         ",
"      > 6 4 f O.f W r d ] r e 0                                                                 9 r f [ d ) f ) r f f e         ",
"      M 6 4 d X.l e r f ^ r e                                                                   9 t e ] t ) f ) r f t e         ",
"      M 6 6 e +.^ e t f e r                                                                     9 0 q [ r ) f ) r f t W         ",
"      M 6 6 f X.e e r f q                                                                           0 l 6 W e O.r f t W         ",
"      M 6 6 t { f e r 0                                                                               r 6 W k O.r f r T         ",
"      M 9 6 q e r e 6                                                                                   6 e d  .r f f T         ",
"      M 9 r 0 q 0 h                                                                                       q d { r f r e         ",
"      M 9 r q 0 0                                                                                             e r r 4 0         ",
"      > 6 0 w                                                                                                   6 r 4 0         ",
"      M r q                                                                                                       6 4 0         ",
"      U r                                                                                                             t         ",
"      U                                                                                                                         "
};
