/* XPM */
static char *dd2827c3d57f4796a8c591c1a16d39e0WlAa2WN4J48dK9Cw[] = {
/* columns rows colors chars-per-pixel */
"287 61 3 1 ",
"  c None",
". c white",
"O c black",
/* pixels */
"OOOOOOOOOOOOOOOOOOOOOOOOOOOOOOOOOOOOOOOOOOOOOOOOOOOOOOOOOOOOOOOOOOOOOOOOOOOOOOOOOOOOOOOOOOOOOOOOOOOOOOOOOOOOOOOOOOOOOOOOOOOOOOOOOOOOOOOOOOOOOOOOOOOOOOOOOOOOOOOOOOOOOOOOOOOOOOOOOOOOOOOOOOOOOOOOOOOOOOOOOOOOOOOOOOOOOOOOOOOOOOOOOOOOOOOOOOOOOOOOOOOOOOOOOOOOOOOOOOOOOOOOOOOOOOOOOOOOOOOOOOOOOOO",
"O                                                                                                                                                                                                                                                                                             O",
"O                                                                                                                                                                                                                                                                                             O",
"O                                                                                                                                                                                                                                                                                             O",
"O                                                                                                                                                                                                                                                                                             O",
"O                                                                                                                                                                                                                                                                                             O",
"O                                                                                                                                                                                                                                                                                             O",
"O                                                                                                                                                                                                                                                                                             O",
"O        ...........................         ...........................         ...........................         ...........................         .........         .........                  .........         ...........................         ...........................       O",
"O        ...........................         ...........................         ...........................         ...........................         .........         .........                  .........         ...........................         ...........................       O",
"O        ...........................         ...........................         ...........................         ...........................         .........         .........                  .........         ...........................         ...........................       O",
"O        ...........................         ...........................         ...........................         ...........................         .........         .........                  .........         ...........................         ...........................       O",
"O        ...........................         ...........................         ...........................         ...........................         .........         .........                  .........         ...........................         ...........................       O",
"O        ...........................         ...........................         ...........................         ...........................         .........         .........                  .........         ...........................         ...........................       O",
"O        ...........................         ...........................         ...........................         ...........................         .........         .........                  .........         ...........................         ...........................       O",
"O        ...........................         ...........................         ...........................         ...........................         .........         .........                  .........         ...........................         ...........................       O",
"O        ...........................         ...........................         ...........................         ...........................         .........         .........                  .........         ...........................         ...........................       O",
"O        .........                           .........                                    .........                           .........                  .........         ..................         .........         .........                           .........                         O",
"O        .........                           .........                                    .........                           .........                  .........         ..................         .........         .........                           .........                         O",
"O        .........                           .........                                    .........                           .........                  .........         ..................         .........         .........                           .........                         O",
"O        .........                           .........                                    .........                           .........                  .........         ..................         .........         .........                           .........                         O",
"O        .........                           .........                                    .........                           .........                  .........         ..................         .........         .........                           .........                         O",
"O        .........                           .........                                    .........                           .........                  .........         ..................         .........         .........                           .........                         O",
"O        .........                           .........                                    .........                           .........                  .........         ..................         .........         .........                           .........                         O",
"O        .........                           .........                                    .........                           .........                  .........         ..................         .........         .........                           .........                         O",
"O        .........                           .........                                    .........                           .........                  .........         ..................         .........         .........                           .........                         O",
"O        ...........................         ...........................                  .........                           .........                  .........         .........         ..................         .........                           ...........................       O",
"O        ...........................         ...........................                  .........                           .........                  .........         .........         ..................         .........                           ...........................       O",
"O        ...........................         ...........................                  .........                           .........                  .........         .........         ..................         .........                           ...........................       O",
"O        ...........................         ...........................                  .........                           .........                  .........         .........         ..................         .........                           ...........................       O",
"O        ...........................         ...........................                  .........                           .........                  .........         .........         ..................         .........                           ...........................       O",
"O        ...........................         ...........................                  .........                           .........                  .........         .........         ..................         .........                           ...........................       O",
"O        ...........................         ...........................                  .........                           .........                  .........         .........         ..................         .........                           ...........................       O",
"O        ...........................         ...........................                  .........                           .........                  .........         .........         ..................         .........                           ...........................       O",
"O        ...........................         ...........................                  .........                           .........                  .........         .........         ..................         .........                           ...........................       O",
"O                          .........         .........                                    .........                           .........                  .........         .........                  .........         .........         .........                           .........       O",
"O                          .........         .........                                    .........                           .........                  .........         .........                  .........         .........         .........                           .........       O",
"O                          .........         .........                                    .........                           .........                  .........         .........                  .........         .........         .........                           .........       O",
"O                          .........         .........                                    .........                           .........                  .........         .........                  .........         .........         .........                           .........       O",
"O                          .........         .........                                    .........                           .........                  .........         .........                  .........         .........         .........                           .........       O",
"O                          .........         .........                                    .........                           .........                  .........         .........                  .........         .........         .........                           .........       O",
"O                          .........         .........                                    .........                           .........                  .........         .........                  .........         .........         .........                           .........       O",
"O                          .........         .........                                    .........                           .........                  .........         .........                  .........         .........         .........                           .........       O",
"O                          .........         .........                                    .........                           .........                  .........         .........                  .........         .........         .........                           .........       O",
"O        ...........................         ...........................                  .........                           .........                  .........         .........                  .........         ...........................         ...........................       O",
"O        ...........................         ...........................                  .........                           .........                  .........         .........                  .........         ...........................         ...........................       O",
"O        ...........................         ...........................                  .........                           .........                  .........         .........                  .........         ...........................         ...........................       O",
"O        ...........................         ...........................                  .........                           .........                  .........         .........                  .........         ...........................         ...........................       O",
"O        ...........................         ...........................                  .........                           .........                  .........         .........                  .........         ...........................         ...........................       O",
"O        ...........................         ...........................                  .........                           .........                  .........         .........                  .........         ...........................         ...........................       O",
"O        ...........................         ...........................                  .........                           .........                  .........         .........                  .........         ...........................         ...........................       O",
"O        ...........................         ...........................                  .........                           .........                  .........         .........                  .........         ...........................         ...........................       O",
"O        ...........................         ...........................                  .........                           .........                  .........         .........                  .........         ...........................         ...........................       O",
"O                                                                                                                                                                                                                                                                                             O",
"O                                                                                                                                                                                                                                                                                             O",
"O                                                                                                                                                                                                                                                                                             O",
"O                                                                                                                                                                                                                                                                                             O",
"O                                                                                                                                                                                                                                                                                             O",
"O                                                                                                                                                                                                                                                                                             O",
"O                                                                                                                                                                                                                                                                                             O",
"OOOOOOOOOOOOOOOOOOOOOOOOOOOOOOOOOOOOOOOOOOOOOOOOOOOOOOOOOOOOOOOOOOOOOOOOOOOOOOOOOOOOOOOOOOOOOOOOOOOOOOOOOOOOOOOOOOOOOOOOOOOOOOOOOOOOOOOOOOOOOOOOOOOOOOOOOOOOOOOOOOOOOOOOOOOOOOOOOOOOOOOOOOOOOOOOOOOOOOOOOOOOOOOOOOOOOOOOOOOOOOOOOOOOOOOOOOOOOOOOOOOOOOOOOOOOOOOOOOOOOOOOOOOOOOOOOOOOOOOOOOOOOOO",                                                                                                                                                                                                                                                                                   O",
};
