/* XPM */
static char *_b9a5dbe1312498dd91b34c21bcc2b3a1qMUKl2tZAzOk7b8[] = {
/* columns rows colors chars-per-pixel */
"64 64 11 1 ",
"  c black",
". c #0D0614",
"X c #170A24",
"o c #2A1140",
"O c #421A63",
"+ c #61258F",
"@ c #6E29AB",
"# c #7F20C8",
"$ c #801FC7",
"% c #811FC9",
"& c #8020C9",
/* pixels */
"                                                                ",
"                                                                ",
"                                                                ",
"                                                                ",
"                                                                ",
"                                                                ",
"                                                                ",
"                                                                ",
"                                                                ",
"                                                                ",
"                                                                ",
"                             &&                                 ",
"                            &&&                                 ",
"                          &&&&       & &&                       ",
"                         &&&&&   &  &&&&&&&&&&                  ",
"                        &&&&&&&&&++++&&&& & &&                  ",
"                        &&&&&&&&++++++&&&&  &                   ",
"                       &&&&&&&&+++&++&&&&                       ",
"                  $#    &&&&&&+++&&&&&&&&&                      ",
"                 %&&    &&&&&+++&&&&&&&&&&&&                    ",
"                 &&& & &&&&++++&@&@@&&&&&&&&&                   ",
"                 &&&&&&+&&&&+@@+@++++@&@&&&&&&                  ",
"                &&&&&&++&&&++++++++++++@&@&&&&&&                ",
"               &&&&&&+++&@@++++++OOO+++++@@+&&&&&               ",
"                &&&&+++&@@+++OOOOOOOOO+++++++&&&&&              ",
"               &&&&&++&@@+++OOOOoooOOOOO+++++++&&&&             ",
"                &&&&++&@+++OOOoooooooooOO+++@+++&&&&&           ",
"                &&&&++@@++OOooooXXooXooOOO+++@++&&&&&&          ",
"               &&&&&++&+++OoooXXXXXXXXooOOO+@&&+&&&&&&&         ",
"                &&&&+@@++OOOoXXX.X..XXoooO+++@+++&&   &         ",
"                 &&&+++++OoooXX......XXooOO++@&+++    &&        ",
"                 &&&&+++OOOoXXX......XXooOO++@@&++   &&&        ",
"                 &&&++++OOOooXX......XXXoOOO++&+++    &         ",
"                  &&&++++OoooXX......XXoooO+++&&++&             ",
"                   &&&+++OOoXXX......XXooOO++@@&&+              ",
"             &&    &&&@++OOooXXX....XXXooO+++@&&&&&             ",
"              &&   &&&@+++OoooXXXXXXXXooOOO+++&&&&&&            ",
"               & &&&&&&+++OOoooXXXXXXoooO+++++&&&&&&            ",
"               &&&&&&&@@++OOOooooooooooOOO+@@+&&&&&             ",
"                &&&&+&&@@++OOOOoooooooOOO++++++&&&&&            ",
"                 &&+++&&@+++OOOOOOOOOOO++++@+++&&&&&            ",
"                    ++&&&@++++++OOOOO++++@@++++&&&&             ",
"                     ++++&@+++++++++++++@@&+++   &&             ",
"                     ++++++++++++++++@+@@&&&+    &&             ",
"                      +++++++++++@+@&@&&&&++++   &              ",
"                        ++++++&+&&&&&&&&&&&+     &&             ",
"                        &&&&&&&&&&&&&&&&&&+++                   ",
"                    $&&&&&&&&&&&&&&&&&&&++++                    ",
"                     %&&&&&&&&&&&&&&&&&+++                      ",
"                         &&&&&      &&&&+                       ",
"                           &        &&&&                        ",
"                                    &&&                         ",
"                                  &&&&                          ",
"                                                                ",
"                                                                ",
"                                                                ",
"                                                                ",
"                                                                ",
"                                                                ",
"                                                                ",
"                                                                ",
"                                                                ",
"                                                                ",
"                                                                "
};
