/* XPM */
static char *c41e10f3d0e84746a6a4c245d80138934JskzEj03OHiYEiW[] = {
/* columns rows colors chars-per-pixel */
"171 45 2 1 ",
"  c None",
". c white",
/* pixels */
"...........................         ...........................         ...........................         ...........................         ...........................",
"...........................         ...........................         ...........................         ...........................         ...........................",
"...........................         ...........................         ...........................         ...........................         ...........................",
"...........................         ...........................         ...........................         ...........................         ...........................",
"...........................         ...........................         ...........................         ...........................         ...........................",
"...........................         ...........................         ...........................         ...........................         ...........................",
"...........................         ...........................         ...........................         ...........................         ...........................",
"...........................         ...........................         ...........................         ...........................         ...........................",
"...........................         ...........................         ...........................         ...........................         ...........................",
".........                                    .........                  .........         .........         .........         .........                  .........         ",
".........                                    .........                  .........         .........         .........         .........                  .........         ",
".........                                    .........                  .........         .........         .........         .........                  .........         ",
".........                                    .........                  .........         .........         .........         .........                  .........         ",
".........                                    .........                  .........         .........         .........         .........                  .........         ",
".........                                    .........                  .........         .........         .........         .........                  .........         ",
".........                                    .........                  .........         .........         .........         .........                  .........         ",
".........                                    .........                  .........         .........         .........         .........                  .........         ",
".........                                    .........                  .........         .........         .........         .........                  .........         ",
"...........................                  .........                  .........         .........         .........         .........                  .........         ",
"...........................                  .........                  .........         .........         .........         .........                  .........         ",
"...........................                  .........                  .........         .........         .........         .........                  .........         ",
"...........................                  .........                  .........         .........         .........         .........                  .........         ",
"...........................                  .........                  .........         .........         .........         .........                  .........         ",
"...........................                  .........                  .........         .........         .........         .........                  .........         ",
"...........................                  .........                  .........         .........         .........         .........                  .........         ",
"...........................                  .........                  .........         .........         .........         .........                  .........         ",
"...........................                  .........                  .........         .........         .........         .........                  .........         ",
"                  .........                  .........                  ...........................         ..................                           .........         ",
"                  .........                  .........                  ...........................         ..................                           .........         ",
"                  .........                  .........                  ...........................         ..................                           .........         ",
"                  .........                  .........                  ...........................         ..................                           .........         ",
"                  .........                  .........                  ...........................         ..................                           .........         ",
"                  .........                  .........                  ...........................         ..................                           .........         ",
"                  .........                  .........                  ...........................         ..................                           .........         ",
"                  .........                  .........                  ...........................         ..................                           .........         ",
"                  .........                  .........                  ...........................         ..................                           .........         ",
"...........................                  .........                  .........         .........         .........         .........                  .........         ",
"...........................                  .........                  .........         .........         .........         .........                  .........         ",
"...........................                  .........                  .........         .........         .........         .........                  .........         ",
"...........................                  .........                  .........         .........         .........         .........                  .........         ",
"...........................                  .........                  .........         .........         .........         .........                  .........         ",
"...........................                  .........                  .........         .........         .........         .........                  .........         ",
"...........................                  .........                  .........         .........         .........         .........                  .........         ",
"...........................                  .........                  .........         .........         .........         .........                  .........         ",
"...........................                  .........                  .........         .........         .........         .........                  .........         "
};
