/* XPM */
static char *_4ea2c18a9ec47e0a056da776aca1ec2kkmppuNvzUpscAaq[] = {
/* columns rows colors chars-per-pixel */
"135 61 3 1 ",
"  c None",
". c white",
"O c black",
/* pixels */
"OOOOOOOOOOOOOOOOOOOOOOOOOOOOOOOOOOOOOOOOOOOOOOOOOOOOOOOOOOOOOOOOOOOOOOOOOOOOOOOOOOOOOOOOOOOOOOOOOOOOOOOOOOOOOOOOOOOOOOOOOOOOOOOOOOOOOOO",
"O                                                                                                                                     O",
"O                                                                                                                                     O",
"O                                                                                                                                     O",
"O                                                                                                                                     O",
"O                                                                                                                                     O",
"O                                                                                                                                     O",
"O                                                                                                                                     O",
"O        ...........................         .........         .........         .........         ...........................        O",
"O        ...........................         .........         .........         .........         ...........................        O",
"O        ...........................         .........         .........         .........         ...........................        O",
"O        ...........................         .........         .........         .........         ...........................        O",
"O        ...........................         .........         .........         .........         ...........................        O",
"O        ...........................         .........         .........         .........         ...........................        O",
"O        ...........................         .........         .........         .........         ...........................        O",
"O        ...........................         .........         .........         .........         ...........................        O",
"O        ...........................         .........         .........         .........         ...........................        O",
"O        .........                           .........         .........         .........                  .........                 O",
"O        .........                           .........         .........         .........                  .........                 O",
"O        .........                           .........         .........         .........                  .........                 O",
"O        .........                           .........         .........         .........                  .........                 O",
"O        .........                           .........         .........         .........                  .........                 O",
"O        .........                           .........         .........         .........                  .........                 O",
"O        .........                           .........         .........         .........                  .........                 O",
"O        .........                           .........         .........         .........                  .........                 O",
"O        .........                           .........         .........         .........                  .........                 O",
"O        ...........................                  .........                  .........                  .........                 O",
"O        ...........................                  .........                  .........                  .........                 O",
"O        ...........................                  .........                  .........                  .........                 O",
"O        ...........................                  .........                  .........                  .........                 O",
"O        ...........................                  .........                  .........                  .........                 O",
"O        ...........................                  .........                  .........                  .........                 O",
"O        ...........................                  .........                  .........                  .........                 O",
"O        ...........................                  .........                  .........                  .........                 O",
"O        ...........................                  .........                  .........                  .........                 O",
"O        .........                           .........         .........         .........                  .........                 O",
"O        .........                           .........         .........         .........                  .........                 O",
"O        .........                           .........         .........         .........                  .........                 O",
"O        .........                           .........         .........         .........                  .........                 O",
"O        .........                           .........         .........         .........                  .........                 O",
"O        .........                           .........         .........         .........                  .........                 O",
"O        .........                           .........         .........         .........                  .........                 O",
"O        .........                           .........         .........         .........                  .........                 O",
"O        .........                           .........         .........         .........                  .........                 O",
"O        ...........................         .........         .........         .........                  .........                 O",
"O        ...........................         .........         .........         .........                  .........                 O",
"O        ...........................         .........         .........         .........                  .........                 O",
"O        ...........................         .........         .........         .........                  .........                 O",
"O        ...........................         .........         .........         .........                  .........                 O",
"O        ...........................         .........         .........         .........                  .........                 O",
"O        ...........................         .........         .........         .........                  .........                 O",
"O        ...........................         .........         .........         .........                  .........                 O",
"O        ...........................         .........         .........         .........                  .........                 O",
"O                                                                                                                                     O",
"O                                                                                                                                     O",
"O                                                                                                                                     O",
"O                                                                                                                                     O",
"O                                                                                                                                     O",
"O                                                                                                                                     O",
"O                                                                                                                                     O",
"OOOOOOOOOOOOOOOOOOOOOOOOOOOOOOOOOOOOOOOOOOOOOOOOOOOOOOOOOOOOOOOOOOOOOOOOOOOOOOOOOOOOOOOOOOOOOOOOOOOOOOOOOOOOOOOOOOOOOOOOOOOOOOOOOOOOOOO"
};
