/* XPM */
static char *c41e10f3d0e84746a6a4c245d80138934JskzEj03OHiYEiW[] = {
/* columns rows colors chars-per-pixel */
"187 61 3 1 ",
"  c None",
". c white",
"O c black",
/* pixels */
"OOOOOOOOOOOOOOOOOOOOOOOOOOOOOOOOOOOOOOOOOOOOOOOOOOOOOOOOOOOOOOOOOOOOOOOOOOOOOOOOOOOOOOOOOOOOOOOOOOOOOOOOOOOOOOOOOOOOOOOOOOOOOOOOOOOOOOOOOOOOOOOOOOOOOOOOOOOOOOOOOOOOOOOOOOOOOOOOOOOOOOOOOOO",
"O                                                                                                                                                                                         O",
"O                                                                                                                                                                                         O",
"O                                                                                                                                                                                         O",
"O                                                                                                                                                                                         O",
"O                                                                                                                                                                                         O",
"O                                                                                                                                                                                         O",
"O                                                                                                                                                                                         O",
"O       ...........................         ...........................         ...........................         ...........................         ...........................       O",
"O       ...........................         ...........................         ...........................         ...........................         ...........................       O",
"O       ...........................         ...........................         ...........................         ...........................         ...........................       O",
"O       ...........................         ...........................         ...........................         ...........................         ...........................       O",
"O       ...........................         ...........................         ...........................         ...........................         ...........................       O",
"O       ...........................         ...........................         ...........................         ...........................         ...........................       O",
"O       ...........................         ...........................         ...........................         ...........................         ...........................       O",
"O       ...........................         ...........................         ...........................         ...........................         ...........................       O",
"O       ...........................         ...........................         ...........................         ...........................         ...........................       O",
"O       .........                                    .........                  .........         .........         .........         .........                  .........                O",
"O       .........                                    .........                  .........         .........         .........         .........                  .........                O",
"O       .........                                    .........                  .........         .........         .........         .........                  .........                O",
"O       .........                                    .........                  .........         .........         .........         .........                  .........                O",
"O       .........                                    .........                  .........         .........         .........         .........                  .........                O",
"O       .........                                    .........                  .........         .........         .........         .........                  .........                O",
"O       .........                                    .........                  .........         .........         .........         .........                  .........                O",
"O       .........                                    .........                  .........         .........         .........         .........                  .........                O",
"O       .........                                    .........                  .........         .........         .........         .........                  .........                O",
"O       ...........................                  .........                  .........         .........         .........         .........                  .........                O",
"O       ...........................                  .........                  .........         .........         .........         .........                  .........                O",
"O       ...........................                  .........                  .........         .........         .........         .........                  .........                O",
"O       ...........................                  .........                  .........         .........         .........         .........                  .........                O",
"O       ...........................                  .........                  .........         .........         .........         .........                  .........                O",
"O       ...........................                  .........                  .........         .........         .........         .........                  .........                O",
"O       ...........................                  .........                  .........         .........         .........         .........                  .........                O",
"O       ...........................                  .........                  .........         .........         .........         .........                  .........                O",
"O       ...........................                  .........                  .........         .........         .........         .........                  .........                O",
"O                         .........                  .........                  ...........................         ..................                           .........                O",
"O                         .........                  .........                  ...........................         ..................                           .........                O",
"O                         .........                  .........                  ...........................         ..................                           .........                O",
"O                         .........                  .........                  ...........................         ..................                           .........                O",
"O                         .........                  .........                  ...........................         ..................                           .........                O",
"O                         .........                  .........                  ...........................         ..................                           .........                O",
"O                         .........                  .........                  ...........................         ..................                           .........                O",
"O                         .........                  .........                  ...........................         ..................                           .........                O",
"O                         .........                  .........                  ...........................         ..................                           .........                O",
"O       ...........................                  .........                  .........         .........         .........         .........                  .........                O",
"O       ...........................                  .........                  .........         .........         .........         .........                  .........                O",
"O       ...........................                  .........                  .........         .........         .........         .........                  .........                O",
"O       ...........................                  .........                  .........         .........         .........         .........                  .........                O",
"O       ...........................                  .........                  .........         .........         .........         .........                  .........                O",
"O       ...........................                  .........                  .........         .........         .........         .........                  .........                O",
"O       ...........................                  .........                  .........         .........         .........         .........                  .........                O",
"O       ...........................                  .........                  .........         .........         .........         .........                  .........                O",
"O       ...........................                  .........                  .........         .........         .........         .........                  .........                O",
"O                                                                                                                                                                                         O",
"O                                                                                                                                                                                         O",
"O                                                                                                                                                                                         O",
"O                                                                                                                                                                                         O",
"O                                                                                                                                                                                         O",
"O                                                                                                                                                                                         O",
"O                                                                                                                                                                                         O",
"OOOOOOOOOOOOOOOOOOOOOOOOOOOOOOOOOOOOOOOOOOOOOOOOOOOOOOOOOOOOOOOOOOOOOOOOOOOOOOOOOOOOOOOOOOOOOOOOOOOOOOOOOOOOOOOOOOOOOOOOOOOOOOOOOOOOOOOOOOOOOOOOOOOOOOOOOOOOOOOOOOOOOOOOOOOOOOOOOOOOOOOOOOO"
};
