/* XPM */
static char *e38f6848ed9b47a0886032a90e61c1a71gLiLGWp0SNoeUCg[] = {
/* columns rows colors chars-per-pixel */
"62 62 3 1 ",
"O  c black",
"  c None",
"X c white",
/* pixels */
"OOOOOOOOOOOOOOOOOOOOOOOOOOOOOOOOOOOOOOOOOOOOOOOOOOOOOOOOOOOOOO",
"O                                                            O",
"O                                                            O",
"O                                                            O",
"O                                                            O",
"O                                                            O",
"O                                                            O",
"O                                                            O",
"O                                          XXXXXXXXXX        O",
"O                                          XXXXXXXXXX        O",
"O                                      XXXXXXXXXXXXXX        O",
"O                                      XXXXXXXXXXXXXX        O",
"O                                  XXXXXXXXXXXXXXXXXX        O",
"O                                  XXXXXXXXXXXXXXXXXX        O",
"O                              XXXXXXXXXXXXXXXXXXXXXX        O",
"O                              XXXXXXXXXXXXXXXXXXXXXX        O",
"O                          XXXXXXXXXXXXXXXXXXXXXXXXXX        O",
"O                          XXXXXXXXXXXXXXXXXXXXXXXXXX        O",
"O                      XXXXXXXXXXXXXXXXXXXXXXXXXXXX          O",
"O                      XXXXXXXXXXXXXXXXXXXXXXXXXXXX          O",
"O                  XXXXXXXXXXXXXXXXXXXXXXXXXXXX              O",
"O                  XXXXXXXXXXXXXXXXXXXXXXXXXXXX              O",
"O              XXXXXXXXXXXXXXXXXXXXXXXXXXXX                  O",
"O              XXXXXXXXXXXXXXXXXXXXXXXXXXXX                  O",
"O          XXXXXXXXXXXXXXXXXXXXXXXXXXXX                      O",
"O          XXXXXXXXXXXXXXXXXXXXXXXXXXXX                      O",
"O       XXXXXXXXXXXXXXXXXXXXXXXXXXX                          O",
"O      XXXXXXXXXXXXXXXXXXXXXXXXXXXX                          O",
"O      XXXXXXXXXXXXXXXXXXXXXXXX                              O",
"O      XXXXXXXXXXXXXXXXXXXXXXXX                              O",
"O      XXXXXXXXXXXXXXXXXXXX                                  O",
"O      XXXXXXXXXXXXXXXXXXXX                                  O",
"O      XXXXXXXXXXXXXXXXXXXXXXXX                              O",
"O      XXXXXXXXXXXXXXXXXXXXXXXX                              O",
"O      XXXXXXXXXXXXXXXXXXXXXXXXXXXX                          O",
"O       XXXXXXXXXXXXXXXXXXXXXXXXXXX                          O",
"O          XXXXXXXXXXXXXXXXXXXXXXXXXXXX                      O",
"O          XXXXXXXXXXXXXXXXXXXXXXXXXXXX                      O",
"O              XXXXXXXXXXXXXXXXXXXXXXXXXXXX                  O",
"O              XXXXXXXXXXXXXXXXXXXXXXXXXXXX                  O",
"O                  XXXXXXXXXXXXXXXXXXXXXXXXXXXX              O",
"O                  XXXXXXXXXXXXXXXXXXXXXXXXXXXX              O",
"O                      XXXXXXXXXXXXXXXXXXXXXXXXXXXX          O",
"O                      XXXXXXXXXXXXXXXXXXXXXXXXXXXX          O",
"O                          XXXXXXXXXXXXXXXXXXXXXXXXXX        O",
"O                          XXXXXXXXXXXXXXXXXXXXXXXXXX        O",
"O                              XXXXXXXXXXXXXXXXXXXXXX        O",
"O                              XXXXXXXXXXXXXXXXXXXXXX        O",
"O                                  XXXXXXXXXXXXXXXXXX        O",
"O                                  XXXXXXXXXXXXXXXXXX        O",
"O                                      XXXXXXXXXXXXXX        O",
"O                                      XXXXXXXXXXXXXX        O",
"O                                          XXXXXXXXXX        O",
"O                                          XXXXXXXXXX        O",
"O                                                            O",
"O                                                            O",
"O                                                            O",
"O                                                            O",
"O                                                            O",
"O                                                            O",
"O                                                            O",
"OOOOOOOOOOOOOOOOOOOOOOOOOOOOOOOOOOOOOOOOOOOOOOOOOOOOOOOOOOOOOO"
};
