/* XPM */
static char *_b913cf35d6645abd677bbd649280936aV3Xmc05cEjWWlYb[] = {
/* columns rows colors chars-per-pixel */
"42 42 3 1 ",
"  c #000001",
". c white",
"O c black",
/* pixels */
"..........................................",
"..........................................",
"..                                      ..",
"..                                      ..",
"..                                      ..",
"..   ................................   ..",
"..   ................................   ..",
"..   ..OOOOOOOOOOOOOOOOOOOOOOOOOOOO..   ..",
"..   ..OOOOOOOOOOOOOOOOOOOOOOOOOOOO..   ..",
"..   ..OOOOOOOOOOOOOOOOOOOOOOOOOOOO..   ..",
"..   ..OOOOOOOOOOOOOOOOOOOOOOOOOOOO..   ..",
"..   ..OOOOOOOOOOOOOOOOOOOOOOOOOOOO..   ..",
"..   ..OOOOOOOOOOOOOOOOOOOOOOOOOOOO..   ..",
"..   ..OOOOOOOOOOOOOOOOOOOOOOOOOOOO..   ..",
"..   ..OOOOOOOOOOOOOOOOOOOOOOOOOOOO..   ..",
"..   ..OOOOOOOOOOOOOOOOOOOOOOOOOOOO..   ..",
"..   ..OOOOOOOOOOOOOOOOOOOOOOOOOOOO..   ..",
"..   ..OOOOOOOOOOOOOOOOOOOOOOOOOOOO..   ..",
"..   ..OOOOOOOOOOOOOOOOOOOOOOOOOOOO..   ..",
"..   ..OOOOOOOOOOOOOOOOOOOOOOOOOOOO..   ..",
"..   ..OOOOOOOOOOOOOOOOOOOOOOOOOOOO..   ..",
"..   ..OOOOOOOOOOOOOOOOOOOOOOOOOOOO..   ..",
"..   ..OOOOOOOOOOOOOOOOOOOOOOOOOOOO..   ..",
"..   ..OOOOOOOOOOOOOOOOOOOOOOOOOOOO..   ..",
"..   ..OOOOOOOOOOOOOOOOOOOOOOOOOOOO..   ..",
"..   ..OOOOOOOOOOOOOOOOOOOOOOOOOOOO..   ..",
"..   ..OOOOOOOOOOOOOOOOOOOOOOOOOOOO..   ..",
"..   ..OOOOOOOOOOOOOOOOOOOOOOOOOOOO..   ..",
"..   ..OOOOOOOOOOOOOOOOOOOOOOOOOOOO..   ..",
"..   ..OOOOOOOOOOOOOOOOOOOOOOOOOOOO..   ..",
"..   ..OOOOOOOOOOOOOOOOOOOOOOOOOOOO..   ..",
"..   ..OOOOOOOOOOOOOOOOOOOOOOOOOOOO..   ..",
"..   ..OOOOOOOOOOOOOOOOOOOOOOOOOOOO..   ..",
"..   ..OOOOOOOOOOOOOOOOOOOOOOOOOOOO..   ..",
"..   ..OOOOOOOOOOOOOOOOOOOOOOOOOOOO..   ..",
"..   ................................   ..",
"..   ................................   ..",
"..                                      ..",
"..                                      ..",
"..                                      ..",
"..........................................",
".........................................."
};
