/* XPM */
static char *_a8fe07103954f34cfff96deaee0257e49msgu9eOCQjR53y[] = {
/* columns rows colors chars-per-pixel */
"221 35 2 1 ",
"  c None",
". c white",
/* pixels */
".....................       .......       .......       ............................       .......                     .......                  .....................       .....................       .....................",
".....................       .......       .......       ............................       .......                     .......                  .....................       .....................       .....................",
".....................       .......       .......       ............................       .......                     .......                  .....................       .....................       .....................",
".....................       .......       .......       ............................       .......                     .......                  .....................       .....................       .....................",
".....................       .......       .......       ............................       .......                     .......                  .....................       .....................       .....................",
".....................       .......       .......       ............................       .......                     .......                  .....................       .....................       .....................",
".....................       .......       .......       ............................       .......                     .......                  .....................       .....................       .....................",
".......                     .......       .......       .......              .......       .......                     .......                  .......                     .......       .......       .......              ",
".......                     .......       .......       .......              .......       .......                     .......                  .......                     .......       .......       .......              ",
".......                     .......       .......       .......              .......       .......                     .......                  .......                     .......       .......       .......              ",
".......                     .......       .......       .......              .......       .......                     .......                  .......                     .......       .......       .......              ",
".......                     .......       .......       .......              .......       .......                     .......                  .......                     .......       .......       .......              ",
".......                     .......       .......       .......              .......       .......                     .......                  .......                     .......       .......       .......              ",
".......                     .......       .......       .......              .......       .......                     .......                  .......                     .......       .......       .......              ",
".....................       .....................       .......              .......       .......                     .......                  .....................       .......       .......       .....................",
".....................       .....................       .......              .......       .......                     .......                  .....................       .......       .......       .....................",
".....................       .....................       .......              .......       .......                     .......                  .....................       .......       .......       .....................",
".....................       .....................       .......              .......       .......                     .......                  .....................       .......       .......       .....................",
".....................       .....................       .......              .......       .......                     .......                  .....................       .......       .......       .....................",
".....................       .....................       .......              .......       .......                     .......                  .....................       .......       .......       .....................",
".....................       .....................       .......              .......       .......                     .......                  .....................       .......       .......       .....................",
"              .......       .......       .......       .......              .......       .......       .......       .......                  .......                     .....................                     .......",
"              .......       .......       .......       .......              .......       .......       .......       .......                  .......                     .....................                     .......",
"              .......       .......       .......       .......              .......       .......       .......       .......                  .......                     .....................                     .......",
"              .......       .......       .......       .......              .......       .......       .......       .......                  .......                     .....................                     .......",
"              .......       .......       .......       .......              .......       .......       .......       .......                  .......                     .....................                     .......",
"              .......       .......       .......       .......              .......       .......       .......       .......                  .......                     .....................                     .......",
"              .......       .......       .......       .......              .......       .......       .......       .......                  .......                     .....................                     .......",
".....................       .......       .......       ............................       ..............       ..............                  .......                     .......                     .....................",
".....................       .......       .......       ............................       ..............       ..............                  .......                     .......                     .....................",
".....................       .......       .......       ............................       ..............       ..............                  .......                     .......                     .....................",
".....................       .......       .......       ............................       ..............       ..............                  .......                     .......                     .....................",
".....................       .......       .......       ............................       ..............       ..............                  .......                     .......                     .....................",
".....................       .......       .......       ............................       ..............       ..............                  .......                     .......                     .....................",
".....................       .......       .......       ............................       ..............       ..............                  .......                     .......                     ....................."
};
